<svg width="152" height="82" viewBox="0 0 152 82" fill="none" xmlns="http://www.w3.org/2000/svg">
<rect x="0.5" y="38.5" width="58" height="40" fill="#370E36" stroke="url(#paint0_linear_64_3)"/>
<rect x="88.5" y="0.5" width="63" height="37" fill="#201E46" stroke="url(#paint1_linear_64_3)"/>
<path d="M22.7539 8.19922L30.1758 8.6875C31.9987 16.7604 35.7422 28.1862 41.4062 42.9648C47.0703 57.6784 50.8138 68.681 52.6367 75.9727C52.6367 77.8607 52.3112 79.2604 51.6602 80.1719C51.0091 81.1484 50.1953 81.6367 49.2188 81.6367C48.3724 81.6367 47.5586 81.2786 46.7773 80.5625C46.0612 79.9115 45.5729 78.9674 45.3125 77.7305C44.7266 74.8659 42.8385 69.1367 39.6484 60.543C26.237 58.8503 17.806 57.8086 14.3555 57.418C13.5091 59.7617 12.4674 63.5703 11.2305 68.8438C9.99349 74.1172 9.01693 77.763 8.30078 79.7812C7.32422 80.9531 6.21745 81.5391 4.98047 81.5391C3.61328 81.5391 2.44141 80.9206 1.46484 79.6836C0.488281 78.5117 0 77.0469 0 75.2891C2.08333 67.6719 5.85938 56.474 11.3281 41.6953C16.7969 26.9167 20.6055 15.7513 22.7539 8.19922ZM26.1719 18.0625C24.8698 25.9401 21.2565 37.4961 15.332 52.7305H26.2695C31.2174 52.7305 35.3516 52.8932 38.6719 53.2188C31.9661 38.8307 27.7995 27.112 26.1719 18.0625ZM65.4297 79.5859L56.543 79C57.194 71.8385 57.5846 59.8594 57.7148 43.0625C57.8451 26.2656 58.2682 14.5469 58.9844 7.90625C61.1979 8.10156 67.0573 8.26432 76.5625 8.39453C86.1328 8.52474 92.3828 8.81771 95.3125 9.27344L96.3867 13.668C93.457 14.1888 87.5977 14.8073 78.8086 15.5234C70.0195 16.2396 65.3971 16.6302 64.9414 16.6953C65.0065 18.1927 65.1367 21.2526 65.332 25.875C65.5924 30.4974 65.7552 34.306 65.8203 37.3008C68.0339 37.5612 72.0703 37.9518 77.9297 38.4727C83.7891 38.9284 87.5 39.2214 89.0625 39.3516L90.0391 43.8438C76.3021 45.0807 68.2617 45.7318 65.918 45.7969V47.457C65.918 49.931 65.8203 55.0742 65.625 62.8867C65.4948 70.6341 65.4297 75.7122 65.4297 78.1211V79.5859ZM101.465 79.8789L97.2656 77.7305C98.9583 73.7591 100.879 69.8854 103.027 66.1094C105.241 62.2682 108.236 57.4505 112.012 51.6562C115.853 45.7969 118.229 42.151 119.141 40.7188C117.513 38.1797 114.16 33.2969 109.082 26.0703C104.069 18.7786 100.326 13.082 97.8516 8.98047L101.953 7.125C107.487 13.5703 114.421 22.8477 122.754 34.957C123.079 33.7201 125.911 29.3906 131.25 21.9688C136.654 14.5469 139.746 10.1523 140.527 8.78516C141.504 7.15755 142.676 6.34375 144.043 6.34375C145.345 6.34375 146.517 6.92969 147.559 8.10156C148.6 9.20833 149.154 10.5104 149.219 12.0078C148.828 12.4635 145.443 17.1185 139.062 25.9727C132.747 34.8268 128.809 40.1654 127.246 41.9883C129.46 45.4388 133.691 51.4284 139.941 59.957C146.191 68.4206 150.13 74.0521 151.758 76.8516C151.758 78.0885 151.432 79.0326 150.781 79.6836C150.195 80.3346 149.414 80.6602 148.438 80.6602C146.224 80.6602 144.531 79.5859 143.359 77.4375L123.34 47.5547C121.322 50.8099 117.773 56.0182 112.695 63.1797C107.617 70.3411 103.874 75.9076 101.465 79.8789Z" fill="#F9F9F9"/>
<defs>
<linearGradient id="paint0_linear_64_3" x1="37.76" y1="67.2857" x2="-4.05501" y2="66.8288" gradientUnits="userSpaceOnUse">
<stop stop-color="#0057FF"/>
<stop offset="1" stop-color="white" stop-opacity="0"/>
</linearGradient>
<linearGradient id="paint1_linear_64_3" x1="139.2" y1="14.25" x2="99.9617" y2="14.9273" gradientUnits="userSpaceOnUse">
<stop stop-color="#FF0000"/>
<stop offset="1" stop-color="white" stop-opacity="0"/>
</linearGradient>
</defs>
</svg>