<svg width="44" height="44" viewBox="0 0 44 44" fill="none" xmlns="http://www.w3.org/2000/svg">
<g clip-path="url(#clip0_11_7)">
<path d="M16.5 0.76465C16.7684 1.09083 16.9329 1.49002 16.9721 1.91064C17.0113 2.33125 16.9235 2.75396 16.72 3.12415C15.1301 6.0432 14.2998 9.31521 14.3055 12.6391C14.3055 23.6969 23.32 32.6509 34.43 32.6509C35.8792 32.6509 37.29 32.4996 38.6458 32.2109C39.0613 32.1209 39.4942 32.1553 39.8904 32.3099C40.2865 32.4644 40.6284 32.7322 40.8732 33.0799C41.1317 33.4414 41.2635 33.8782 41.2481 34.3223C41.2327 34.7664 41.0709 35.193 40.788 35.5356C38.6311 38.1851 35.9102 40.3198 32.8235 41.7842C29.7369 43.2485 26.3624 44.0056 22.946 44.0001C10.2685 44.0001 0 33.7867 0 21.2027C0 11.7316 5.8135 3.60815 14.091 0.165149C14.5033 -0.00911292 14.9611 -0.0448795 15.3955 0.0632225C15.8299 0.171325 16.2174 0.417458 16.5 0.76465Z" fill="white"/>
</g>
<defs>
<clipPath id="clip0_11_7">
<rect width="44" height="44" fill="white"/>
</clipPath>
</defs>
</svg>
