<svg width="44" height="44" viewBox="0 0 44 44" fill="none" xmlns="http://www.w3.org/2000/svg">
<path d="M20.625 6.875V2.75C20.625 2.38533 20.7699 2.03559 21.0277 1.77773C21.2856 1.51987 21.6353 1.375 22 1.375C22.3647 1.375 22.7144 1.51987 22.9723 1.77773C23.2301 2.03559 23.375 2.38533 23.375 2.75V6.875C23.375 7.23967 23.2301 7.58941 22.9723 7.84727C22.7144 8.10513 22.3647 8.25 22 8.25C21.6353 8.25 21.2856 8.10513 21.0277 7.84727C20.7699 7.58941 20.625 7.23967 20.625 6.875ZM33 22C33 24.1756 32.3549 26.3023 31.1462 28.1113C29.9375 29.9202 28.2195 31.3301 26.2095 32.1627C24.1995 32.9952 21.9878 33.2131 19.854 32.7886C17.7202 32.3642 15.7602 31.3166 14.2218 29.7782C12.6834 28.2398 11.6358 26.2798 11.2114 24.146C10.7869 22.0122 11.0048 19.8005 11.8373 17.7905C12.6699 15.7805 14.0798 14.0625 15.8887 12.8538C17.6977 11.6451 19.8244 11 22 11C24.9164 11.0032 27.7124 12.1631 29.7747 14.2253C31.8369 16.2876 32.9968 19.0836 33 22ZM30.25 22C30.25 20.3683 29.7661 18.7733 28.8596 17.4165C27.9531 16.0598 26.6646 15.0024 25.1571 14.378C23.6496 13.7536 21.9908 13.5902 20.3905 13.9085C18.7902 14.2269 17.3202 15.0126 16.1664 16.1664C15.0126 17.3202 14.2269 18.7902 13.9085 20.3905C13.5902 21.9908 13.7536 23.6496 14.378 25.1571C15.0024 26.6646 16.0598 27.9531 17.4165 28.8596C18.7733 29.7661 20.3683 30.25 22 30.25C24.1873 30.2477 26.2844 29.3778 27.8311 27.8311C29.3778 26.2844 30.2477 24.1873 30.25 22ZM10.0272 11.9728C10.2852 12.2308 10.6351 12.3758 11 12.3758C11.3649 12.3758 11.7148 12.2308 11.9728 11.9728C12.2308 11.7148 12.3758 11.3649 12.3758 11C12.3758 10.6351 12.2308 10.2852 11.9728 10.0272L9.22281 7.27719C8.96481 7.01918 8.61488 6.87424 8.25 6.87424C7.88512 6.87424 7.53519 7.01918 7.27719 7.27719C7.01918 7.53519 6.87424 7.88512 6.87424 8.25C6.87424 8.61488 7.01918 8.96481 7.27719 9.22281L10.0272 11.9728ZM10.0272 32.0272L7.27719 34.7772C7.01918 35.0352 6.87424 35.3851 6.87424 35.75C6.87424 36.1149 7.01918 36.4648 7.27719 36.7228C7.53519 36.9808 7.88512 37.1258 8.25 37.1258C8.61488 37.1258 8.96481 36.9808 9.22281 36.7228L11.9728 33.9728C12.1006 33.8451 12.2019 33.6934 12.271 33.5265C12.3402 33.3596 12.3758 33.1807 12.3758 33C12.3758 32.8193 12.3402 32.6404 12.271 32.4735C12.2019 32.3066 12.1006 32.1549 11.9728 32.0272C11.8451 31.8994 11.6934 31.7981 11.5265 31.729C11.3596 31.6598 11.1807 31.6242 11 31.6242C10.8193 31.6242 10.6404 31.6598 10.4735 31.729C10.3066 31.7981 10.1549 31.8994 10.0272 32.0272ZM33 12.375C33.1806 12.3751 33.3595 12.3397 33.5264 12.2707C33.6933 12.2017 33.845 12.1005 33.9728 11.9728L36.7228 9.22281C36.9808 8.96481 37.1258 8.61488 37.1258 8.25C37.1258 7.88512 36.9808 7.53519 36.7228 7.27719C36.4648 7.01918 36.1149 6.87424 35.75 6.87424C35.3851 6.87424 35.0352 7.01918 34.7772 7.27719L32.0272 10.0272C31.8347 10.2195 31.7035 10.4646 31.6504 10.7315C31.5973 10.9983 31.6245 11.275 31.7286 11.5263C31.8328 11.7777 32.0092 11.9925 32.2355 12.1436C32.4618 12.2947 32.7279 12.3752 33 12.375ZM33.9728 32.0272C33.7148 31.7692 33.3649 31.6242 33 31.6242C32.6351 31.6242 32.2852 31.7692 32.0272 32.0272C31.7692 32.2852 31.6242 32.6351 31.6242 33C31.6242 33.3649 31.7692 33.7148 32.0272 33.9728L34.7772 36.7228C34.9049 36.8506 35.0566 36.9519 35.2235 37.021C35.3904 37.0902 35.5693 37.1258 35.75 37.1258C35.9307 37.1258 36.1096 37.0902 36.2765 37.021C36.4434 36.9519 36.5951 36.8506 36.7228 36.7228C36.8506 36.5951 36.9519 36.4434 37.021 36.2765C37.0902 36.1096 37.1258 35.9307 37.1258 35.75C37.1258 35.5693 37.0902 35.3904 37.021 35.2235C36.9519 35.0566 36.8506 34.9049 36.7228 34.7772L33.9728 32.0272ZM8.25 22C8.25 21.6353 8.10513 21.2856 7.84727 21.0277C7.58941 20.7699 7.23967 20.625 6.875 20.625H2.75C2.38533 20.625 2.03559 20.7699 1.77773 21.0277C1.51987 21.2856 1.375 21.6353 1.375 22C1.375 22.3647 1.51987 22.7144 1.77773 22.9723C2.03559 23.2301 2.38533 23.375 2.75 23.375H6.875C7.23967 23.375 7.58941 23.2301 7.84727 22.9723C8.10513 22.7144 8.25 22.3647 8.25 22ZM22 35.75C21.6353 35.75 21.2856 35.8949 21.0277 36.1527C20.7699 36.4106 20.625 36.7603 20.625 37.125V41.25C20.625 41.6147 20.7699 41.9644 21.0277 42.2223C21.2856 42.4801 21.6353 42.625 22 42.625C22.3647 42.625 22.7144 42.4801 22.9723 42.2223C23.2301 41.9644 23.375 41.6147 23.375 41.25V37.125C23.375 36.7603 23.2301 36.4106 22.9723 36.1527C22.7144 35.8949 22.3647 35.75 22 35.75ZM41.25 20.625H37.125C36.7603 20.625 36.4106 20.7699 36.1527 21.0277C35.8949 21.2856 35.75 21.6353 35.75 22C35.75 22.3647 35.8949 22.7144 36.1527 22.9723C36.4106 23.2301 36.7603 23.375 37.125 23.375H41.25C41.6147 23.375 41.9644 23.2301 42.2223 22.9723C42.4801 22.7144 42.625 22.3647 42.625 22C42.625 21.6353 42.4801 21.2856 42.2223 21.0277C41.9644 20.7699 41.6147 20.625 41.25 20.625Z" fill="#232323"/>
</svg>
